<svg width="116" height="32" viewBox="0 0 116 32" fill="none" xmlns="http://www.w3.org/2000/svg">
<path d="M8.45125 14.7707L3.67512 15.8659V11.909C5.27008 12.6383 6.92097 13.2292 8.6107 13.6755L9.56745 9.83633C8.04881 9.83633 6.19606 9.27106 4.35091 8.8C3.40935 9.60473 1.31363 11.0022 0.0835254 11.8069C0.163254 13.3104 0.151864 14.7982 0.132881 16.7609L1.32122 17.3733L6.07457 16.6785V20.3528L1.63254 19.128C0.870332 20.3645 0.318198 21.7267 0 23.1556C2.52854 23.1556 3.84976 23.4147 6.2644 23.8857C7.08447 23.132 8.42847 21.7188 9.88636 20.7061C9.54545 18.6948 9.06586 16.7112 8.45125 14.7707Z" fill="#FCFCFD"/>
<path d="M19.7727 10.4684L17.8834 13.6641C16.7693 12.9611 15.5732 12.4083 14.324 12.0192C14.1653 14.4395 14.1653 16.1079 14.1653 19.1156C15.3216 19.8206 17.7928 20.3845 19.3571 20.6195L16.7121 23.8857C14.7852 22.9455 12.801 22.137 10.7722 21.4654C10.7722 16.7188 10.7722 14.3455 10.5455 11.5728L16.5534 8.8C17.4829 9.50494 18.3671 9.78691 19.7727 10.4684Z" fill="#FCFCFD"/>
<path d="M24.7759 10.4971L26.0871 8.8C27.1949 9.36571 28.5965 9.97857 29.6591 10.5207L26.9462 13.75C26.2377 13.3342 25.5054 12.9642 24.7533 12.6421C24.7081 14.08 24.7081 15.3921 24.7081 19.6193C25.6014 20.1238 26.5735 20.459 27.5792 20.6093L24.7533 23.8857C24.1655 23.4379 22.6734 22.8014 21.317 22.1886C21.317 15.0229 21.317 13.4907 21.0909 9.24786L24.7081 9.27143L24.7759 10.4971Z" fill="#FCFCFD"/>
<path d="M32.0911 4C33.2153 4.56413 34.1789 5.12827 35.2572 5.66889L32.6876 8.60709C31.7058 8.04203 30.6948 7.532 29.6591 7.07923L32.0911 4ZM34.11 19.6312C34.9763 20.1329 35.925 20.4676 36.9091 20.6184L34.0412 23.8857C33.4447 23.4391 32.0452 22.8045 30.6686 22.1933C30.6686 15.0476 30.6686 13.5198 30.4392 9.28875L34.3395 9.31226C34.11 13.5433 34.11 12.9086 34.11 19.6312Z" fill="#FCFCFD"/>
<path d="M36.9091 28C37.145 23.0788 37.145 16.6869 37.145 9.33333H40.6833C40.7152 10.1757 40.6197 11.018 40.4002 11.8303C41.155 10.9576 43.0421 8.8 43.0421 8.8C44.0328 9.52727 46.5568 10.9576 47.8778 11.297C47.8778 14.6182 47.8778 17.1394 48.1136 21.503C46.6832 22.2976 45.3457 23.2573 44.1272 24.3636L40.7776 22.1333C40.8012 23.8303 40.8484 25.5758 40.9191 27.5152L36.9091 28ZM44.1744 20.9455C44.3395 17.4061 44.3395 15.6121 44.3395 13.3333C43.1574 12.8621 41.9326 12.513 40.6833 12.2909C40.6833 15.4424 40.7068 18.1818 40.754 21.0667L44.1744 20.9455Z" fill="#FCFCFD"/>
<path d="M54.0475 9.52278H56.0289L55.7136 11.8162H53.98C53.9349 13.7467 53.9349 15.9166 53.9349 19.6927C54.785 20.1871 55.716 20.5169 56.6818 20.6656L53.8674 23.8857C53.282 23.4456 51.9085 22.8201 50.5576 22.2178C50.5576 17.9089 50.5576 14.6425 50.5126 11.8162H49.4318C49.8371 10.7969 50.0397 10.5421 50.445 9.52278C50.4225 8.57297 50.3775 7.64633 50.3324 6.74286L54.1601 7.20618C54.1151 8.06332 54.07 8.80463 54.0475 9.52278Z" fill="#FCFCFD"/>
<path d="M68.3213 11.2203C68.3213 14.4395 68.3213 16.8833 68.5455 21.113L62.1605 23.8857C61.219 23.1808 58.8204 21.7944 57.5651 21.4654C57.5651 16.7188 57.5651 14.3455 57.3409 11.5728L63.7296 8.8C64.6711 9.50494 67.066 10.8913 68.3213 11.2203ZM64.8056 20.5725C64.9625 17.1418 64.9625 15.4029 64.9625 13.1941C63.7112 12.6818 62.4111 12.3115 61.0845 12.0897C60.9276 14.463 60.9276 16.1314 60.9276 19.1156C62.1487 19.7895 63.4541 20.28 64.8056 20.5725Z" fill="#FCFCFD"/>
<path d="M74.2077 10.4971L75.519 8.8C76.6267 9.36571 78.0284 9.97857 79.0909 10.5207L76.378 13.75C75.6695 13.3342 74.9372 12.9642 74.1851 12.6421C74.1399 14.08 74.1399 15.3921 74.1399 19.6193C75.0332 20.1238 76.0054 20.459 77.011 20.6093L74.1851 23.8857C73.5973 23.4379 72.1052 22.8014 70.7488 22.1886C70.7488 15.0229 70.7488 13.4907 70.5227 9.24786L74.1399 9.27143L74.2077 10.4971Z" fill="#FCFCFD"/>
<path d="M80.8651 4C81.9899 4.56413 82.954 5.12827 84.0291 5.66889L81.4619 8.60709C80.4796 8.04203 79.4681 7.532 78.4318 7.07923L80.8651 4ZM82.8813 19.6312C83.748 20.1329 84.6972 20.4676 85.6818 20.6184L82.8124 23.8857C82.2194 23.4391 80.8192 22.8045 79.4418 22.1933C79.4418 15.0476 79.4418 13.5198 79.2123 9.28875L83.1147 9.31226C82.8813 13.5433 82.8813 12.9086 82.8813 19.6312Z" fill="#FCFCFD"/>
<path d="M89.9407 18.8964C90.9512 19.55 92.0451 20.0492 93.1895 20.3791C93.2791 16.5664 93.2567 12.1184 93.0775 8.8L96.8864 9.27069C96.6623 13.7187 96.6623 19.1788 96.8864 23.415H93.0625C93.0684 22.6967 93.1741 21.9832 93.3762 21.2969L91.1581 23.8857C90.217 23.1797 87.8197 21.7911 86.565 21.4616C86.565 16.7076 86.565 13.0362 86.3409 8.8L90.1498 9.27069C89.9407 13.5069 89.9407 15.1308 89.9407 18.8964Z" fill="#FCFCFD"/>
<path d="M112.334 13.7893C111.368 13.1456 110.309 12.6612 109.196 12.3537C109.196 16.5664 109.196 20.0025 109.402 23.8857L105.737 23.415V13.7893C104.774 13.1618 103.734 12.671 102.644 12.3302C102.552 16.0016 102.575 20.1202 102.758 23.415H98.8636C99.0927 18.868 99.0927 14.3119 98.8636 9.76492L102.758 9.29423C102.752 10.0048 102.644 10.7106 102.438 11.3888L104.706 8.8C105.599 9.50604 107.913 10.871 109.196 11.2005C109.769 10.5651 111.304 8.8 111.304 8.8C112.197 9.50604 114.488 10.8946 115.771 11.2241C115.771 15.9781 115.771 19.6495 116 23.8857L112.105 23.415C112.334 19.1788 112.334 17.5549 112.334 13.7893Z" fill="#FCFCFD"/>
</svg>
